<svg width="25" height="25" viewBox="0 0 25 25" fill="none" xmlns="http://www.w3.org/2000/svg">
<path fill-rule="evenodd" clip-rule="evenodd" d="M9 3H8H7H6V4H5V6V8V10V12V14V16V18V19V20V21H6V22H7H8H9H10H12H15H16H17H19V21H20V20V19V18V16V14V12V10V8H19V7H18V6H17V5H16V4H15V3H13H11H9ZM18 19V18V16V14V12V11H17H16H15H14V10H13V8V7V6V5H11H9H8H7V6V8V10V12V14V16V18V19V20H8H9H10H12H15H16H17V19H18ZM17 9V8H16V7H15V8V9H16H17ZM9 7H11V9H9V7ZM12 10H8V11V12H10H12V11V10ZM8 16V14H10H12H14H16V16H14H12H10H8ZM14 17H16V19H14H12H10H8V17H10H12H14Z" fill="white"/>
</svg>
